<svg xmlns="http://www.w3.org/2000/svg" fill="none" viewBox="-0.5 -0.5 200 200" id="Investing--Streamline-Bangalore.svg" height="200" width="200"><desc>Investing Streamline Illustration: https://streamlinehq.com</desc><g id="Finances-Investing-01"><g id="color 2"><path id="Vector" fill="#ff5c72" d="M168.735085 71.587265s-12.587745 9.280365 -17.974675 17.956765c-2.820825 -3.035148 -5.17201 -6.4755595 -6.97495 -10.20671 -5.95408 -12.153925 -13.495185000000001 -12.338000000000001 -16.822465 -13.326035000000001 -2.13527 2.6865 -6.16104 5.216785000000001 -9.73309 6.766 -2.4476999999999998 9.3660345 -4.01781 18.9399245 -4.68844 28.597295 -0.126365 1.74921 0.261685 3.4964299999999997 1.115395 5.027735l16.255315 28.656c3.941195 -1.0945 7.63165 -2.94321 10.868385 -5.443645 -3.9998999999999993 -11.262405000000001 -7.3291699999999995 -21.680055000000003 -13.505135000000001 -28.973405 1.23181 -2.392975 2.9392300000000002 -5.52623 4.962065 -9.755975 2.66461 4.4775 7.1441 8.922165 12.701175000000001 13.08027 1.7701049999999998 1.3183749999999999 3.97005 1.923335 6.165019999999999 1.6954799999999999 2.19497 -0.227855 4.22477 -1.2716100000000001 5.686425 -2.924305l20.58257 -23.248175c-2.3730749999999996 -3.13823 -5.300365 -5.8160735 -8.637595 -7.901295Z" stroke-width="1"></path><path id="Vector_2" fill="#ff5c72" d="M47.276430000000005 77.14434c0.000199 1.689908 -0.500684 3.3419065 -1.4394665 4.7470455000000005 -0.938683 1.4052385 -2.272978 2.5005345 -3.8342324999999997 3.1472845 -1.5611549999999998 0.6468495 -3.2791219999999996 0.8161985 -4.936593 0.4866545 -1.657471 -0.329544 -3.1799205 -1.143255 -4.374915499999999 -2.338051 -1.1950945 -1.1948955 -2.008905 -2.717345 -2.338648 -4.3747165 -0.32974299999999995 -1.6573715 -0.16059299999999999 -3.375438 0.4860575 -4.9366925 0.6466505 -1.5612545 1.7417475 -2.8957485 3.146787 -3.8346305 1.405139 -0.938882 3.057038 -1.439964 4.746946 -1.439964 2.2655155 0.000995 4.4379985 0.9013705000000001 6.0400480000000005 2.5033204999999996 1.6020495000000001 1.6018505 2.5027234999999997 3.7742340000000003 2.5040169999999997 6.0397495Z" stroke-width="1"></path><path id="Vector_3" fill="#ff5c72" d="m65.64810999999999 41.572095 8.92117 -3.19395 -9.677370000000002 -18.825400000000002 -18.693065 6.691375 2.1442249999999996 10.002735000000001 -13.466330000000001 -4.73023 -0.888535 2.098455 15.49812 7.96L50.6455 46.964000000000006l1.47459 -0.5283450000000001c-0.47262499999999996 -0.51143 0.263675 -0.86963 2.4377500000000003 -0.888535l9.790799999999999 -3.4974250000000002c-0.383075 -1.1203699999999999 -0.47759999999999997 -1.9701 1.2994700000000001 -0.47759999999999997Z" stroke-width="1"></path><path id="Subtract" fill="#ff5c72" fill-rule="evenodd" d="M60.8125095 102.277045c2.9549510000000003 -2.33825 5.1934025 -5.4604605 6.4604355 -9.009725 0.47620700000000005 -1.6758784999999998 0.731524 -3.397925 0.7660505000000001 -5.123255 0.7139125000000001 -0.217905 1.4515060000000002 -0.363971 2.2020345 -0.43382 2.916942 -0.26795349999999996 5.8208495000000005 0.632422 8.0745245 2.5035195 2.2536750000000003 1.8710975 3.6729429999999996 4.559886 3.9460705 7.4763304999999995 0.20118899999999998 2.17507 -0.2470585 4.36009 -1.287928 6.2804400000000005 -1.040969 1.92035 -2.627795 3.48847 -4.559985500000001 4.507350000000001 -1.9321905 1.017885 -4.1229815 1.44076 -6.295365 1.2139 -2.172284 -0.225865 -4.22875 -1.091515 -5.9092055000000006 -2.486505 -1.566329 -1.300465 -2.740429 -3.00689 -3.3966315 -4.928235Zm-0.057411500000000004 -0.17213499999999998c-0.18397550000000001 -0.6636650000000001 -0.33332500000000004 -1.33529 -0.44804849999999996 -2.010895 0.07502299999999999 0.59302 0.1985025 1.1820599999999999 0.3702395 1.760155 0.0249745 0.08358 0.050944 0.16716 0.077809 0.25074Z" clip-rule="evenodd" stroke-width="1"></path></g><g id="color 1"><path id="Vector_4" fill="#6153bd" d="M50.2475 163.86356500000002c-1.5127979999999999 -2.410885 -3.665779 -4.355115 -6.21875 -5.613790000000001 -0.2783015 2.84769 0.343474 5.710305 1.7779654999999999 8.18487 1.434392 2.4755599999999998 3.609064 4.438695 6.2178545000000005 5.612795 0.1857665 -2.840725 -0.4299395 -5.676475 -1.77707 -8.183875Z" stroke-width="1"></path><path id="Vector_5" fill="#6153bd" d="M67.272945 93.26732c-1.268028 3.5521499999999997 -3.509166 6.67645 -6.4675 9.015695 -1.0405710000000001 -3.6246855 -1.0443520000000002 -7.46847 -0.010945 -11.095245 1.266834 -3.5526475 3.508171 -6.677047 6.4675 -9.015695 1.0376855 3.6250835 1.0414664999999999 7.4681715 0.010945 11.095245Z" stroke-width="1"></path><path id="Vector_6" fill="#6153bd" d="M34.290685 66.40829000000001c-1.1730055000000001 -1.2157905 -1.9844279999999999 -2.7340609999999996 -2.343225 -4.384965 1.662446 0.2976045 3.2079795 1.056093 4.460585 2.189 1.1725079999999999 1.216089 1.983831 2.7343595 2.343225 4.384965 -1.6625455 -0.2976045 -3.208079 -1.0559934999999998 -4.460585 -2.189Z" stroke-width="1"></path><path id="Vector_7" fill="#6153bd" d="M46.7849 125.6685c-2.7733635000000003 -2.146215 -5.331011 -4.558095000000001 -7.6366249999999996 -7.200815 -0.7197830000000001 2.53526 -0.9822639999999999 5.17798 -0.775105 7.805775 0.577896 4.635705 2.4442175 9.016689999999999 5.3869299999999996 12.645455 2.210691 -4.05363 3.2575304999999997 -8.639585 3.0248 -13.250415Z" stroke-width="1"></path><path id="Vector_8" fill="#6153bd" d="M107.26896 47.148075c0.11243500000000001 0.9263450000000001 0.868635 1.43678 2.570085 1.73926 0.26566500000000004 -0.5671499999999999 0.51143 -1.1342999999999999 0.737295 -1.70145 -1.66364 0.510435 -3.099425 0.6994849999999999 -3.3073799999999998 -0.037809999999999996Z" stroke-width="1"></path><path id="Vector_9" fill="#6153bd" d="M121.860635 47.223695s2.92928 -5.10236 -1.644735 -7.843585c-8.80774 -5.273499999999999 -10.736049999999999 1.039775 -10.736049999999999 1.039775 0.48755 -0.059103 0.9830599999999999 -0.020497 1.4556850000000001 0.11343 -0.359195 0.982065 -0.398 2.3243199999999997 0.207955 1.64374 1.077585 -1.17211 2.229795 0.586055 0.15123999999999999 2.0228349999999997 1.011915 5.806024000000001 3.3680749999999997 11.294941499999998 6.879429999999999 16.028455 0.978085 1.430412 2.359145 2.538643 3.9670650000000003 3.184597 1.60792 0.6458545 3.37106 0.8004775 5.067535 0.444168 1.153205 -0.190045 2.2367600000000003 -0.67461 3.14818 -1.406731 0.910425 -0.732121 1.616875 -1.6870225 2.0497 -2.772269 3.648665 -9.3729 -10.546005000000001 -12.454415 -10.546005000000001 -12.454415Z" stroke-width="1"></path><path id="Vector_10" fill="#6153bd" d="M106.51276 62.666095c-0.540285 0.4375015 -1.103455 0.8469439999999999 -1.68553 1.2268350000000001 0 0 1.96811 1.8904999999999998 4.65262 3.98995l-2.9670900000000002 -5.216785000000001Z" stroke-width="1"></path><path id="Vector_11" fill="#6153bd" d="M143.06707 136.8722c-1.435785 -2.05965 -2.2885 -3.1551449999999996 -2.985 -4.250640000000001 -2.3850149999999997 1.017885 -4.649635 2.29845 -6.75207 3.81682l1.05868 1.8705999999999998c1.9472150000000001 10.225615 3.817815 14.04343 6.71028 18.579635 1.70344 -4.32825 2.6297849999999996 -16.236410000000003 1.96811 -20.016415000000002Z" stroke-width="1"></path><path id="Vector_12" fill="#6153bd" d="M174.4434 67.39135c-1.47459 2.0228349999999997 -2.2685999999999997 3.175045 -3.0616149999999998 4.179 1.726325 1.9298025 3.65961 3.6647839999999996 5.764035 5.174l1.47459 -1.60593C187.65699999999998 69.981335 190.67981 66.97543999999999 194.025 62.7845c-4.649635 -0.21293 -16.218500000000002 2.7551550000000002 -19.581599999999998 4.60685Z" stroke-width="1"></path></g><g id="outlines"><path id="Vector_13" stroke="#120071" stroke-linecap="round" stroke-linejoin="round" d="M82.82877500000001 27.13166c10.704011 0.7423695 20.94077 4.67252 29.391305000000003 11.284294999999998" stroke-width="1"></path><path id="Vector_14" stroke="#120071" stroke-linecap="round" stroke-linejoin="round" d="M120.839765 119.048765c-5.8506 6.5033199999999995 -13.17778 11.505185 -21.365038000000002 14.58471 -8.187457 3.0795250000000003 -16.9950975 4.146165 -25.68095 3.11037 -8.6858525 -1.035795 -16.995594999999998 -4.144175 -24.229245 -9.06246 -7.2335505 -4.918285 -13.1790735 -11.503195 -17.3357855 -19.200515 -4.156712 -7.696325 -6.4027255 -16.2794935 -6.5489905 -25.0257425 -0.14626499999999998 -8.746149500000001 1.8115965 -17.399465499999998 5.7086135 -25.230812 3.5235935 -7.0809175 8.5391895 -13.3024535 14.690478500000001 -18.24233" stroke-width="1"></path><path id="Vector_15" stroke="#120071" stroke-linecap="round" stroke-linejoin="round" d="M133.786705 93.1917c-0.78207 3.946767 -1.9989549999999998 7.794829999999999 -3.6287649999999996 11.473345" stroke-width="1"></path><path id="Vector_16" stroke="#120071" stroke-linecap="round" stroke-linejoin="round" d="M130.85742499999998 62.061135c0.74426 1.8348795 1.38703 3.7089619999999996 1.9273150000000001 5.613790000000001" stroke-width="1"></path><path id="Vector_17" stroke="#120071" stroke-linecap="round" stroke-linejoin="round" d="M88.480375 61.248219999999996c12.853409999999998 -10.149 18.78759 -11.264395 21.89 -9.29927 2.6765499999999998 1.69747 4.470535 5.236685 6.299345000000001 6.0237300000000005" stroke-width="1"></path><path id="Vector_18" stroke="#120071" stroke-linecap="round" stroke-linejoin="round" d="M124.7332 64.04616c0.71043 0.6924205 1.4616550000000001 1.3423545 2.2487 1.94622" stroke-width="1"></path><path id="Vector_19" stroke="#120071" stroke-linecap="round" stroke-linejoin="round" d="M109.47985 40.419885s1.92831 -6.315265 10.736049999999999 -1.039775c4.577 2.7392350000000003 1.644735 7.843585 1.644735 7.843585s14.18074 3.075545 10.546999999999999 12.456405c-0.43382 1.0850475 -1.139275 2.0397499999999997 -2.0506949999999997 2.771871 -0.910425 0.732121 -1.99398 1.2167855 -3.147185 1.4071289999999999 -1.696475 0.357205 -3.459615 0.2030795 -5.06853 -0.4428745 -1.60792 -0.6460535 -2.987985 -1.754782 -3.96607 -3.1858905 -3.51036 -4.7341105 -5.865525 -10.222829 -6.879429999999999 -16.028455 2.078555 -1.43678 0.9154 -3.2039 -0.15123999999999999 -2.0228349999999997 -0.61093 0.675605 -0.5671499999999999 -0.66068 -0.207955 -1.64374 -0.47362 -0.13382750000000002 -0.968135 -0.1730305 -1.45668 -0.11542000000000001v0Z" stroke-width="1"></path><path id="Vector_20" stroke="#120071" stroke-linecap="round" stroke-linejoin="round" d="M109.839045 48.887335c-4.006865 -0.71839 -2.76013 -2.5710800000000003 -0.359195 -8.46745" stroke-width="1"></path><path id="Vector_21" stroke="#120071" stroke-linecap="round" stroke-linejoin="round" d="M108.61022000000001 51.268370000000004c0.76018 -1.304047 1.4109099999999999 -2.6684905000000003 1.9472150000000001 -4.0794999999999995 -1.66364 0.510435 -3.10042 0.6965 -3.3083750000000003 -0.056715" stroke-width="1"></path><path id="Vector_22" stroke="#120071" stroke-linecap="round" stroke-linejoin="round" d="M101.092 52.8942c-6.0695 -3.2128550000000002 -22.341730000000002 -15.064300000000001 -22.341730000000002 -15.064300000000001 1.039775 -3.855625 2.985 -6.653565 5.91627 -8.297305 0 0 14.402625 10.47138 23.11584 15.083205000000001" stroke-width="1"></path><path id="Vector_23" stroke="#120071" stroke-linecap="round" stroke-linejoin="round" d="M132.25539999999998 90.866385c2.665605 4.4775 7.1441 8.92316 12.70217 13.08027 1.7701049999999998 1.3183749999999999 3.97005 1.923335 6.165019999999999 1.6954799999999999 2.19497 -0.227855 4.223775 -1.2716100000000001 5.68543 -2.924305l20.56466 -23.22927c-2.388 -3.1307675 -5.312305 -5.812392 -8.637595 -7.9202 0 0 -16.72794 12.324069999999999 -19.883085 21.8502" stroke-width="1"></path><path id="Vector_24" stroke="#120071" stroke-linecap="round" stroke-linejoin="round" d="M127.265475 100.75170999999999c6.199845 7.296335 9.50822 17.55976 13.515085000000001 28.844055 -3.236735 2.500435 -6.9271899999999995 4.349145 -10.868385 5.443645l-16.255315 -28.636100000000003c-0.8547049999999999 -1.531305 -1.24176 -3.278525 -1.115395 -5.027735 0.6696350000000001 -9.663639 2.23875 -19.2437975 4.687445 -28.616200000000003 3.573045 -1.55021 7.598814999999999 -4.0794999999999995 9.734085 -6.766 3.32728 0.9830599999999999 10.868385 1.17211 16.822465 13.326035000000001 1.799955 3.7275685000000003 4.148154999999999 7.164796 6.965 10.197755" stroke-width="1"></path><path id="Vector_25" stroke="#120071" stroke-linecap="round" stroke-linejoin="round" d="M125.94312 103.43622c1.03878 -2.4198399999999998 3.5402099999999996 -6.80182 5.6715 -11.189770000000001 7.10629 -14.639434999999999 2.985 -17.785625 1.791 -19.298025" stroke-width="1"></path><path id="Vector_26" stroke="#120071" stroke-linecap="round" stroke-linejoin="round" d="M104.82723 63.89293c0.582075 -0.379891 1.145245 -0.7893335 1.68553 -1.2268350000000001l2.9670900000000002 5.216785000000001" stroke-width="1"></path><path id="Vector_27" stroke="#120071" stroke-linecap="round" stroke-linejoin="round" d="M117.247815 72.759375c-3.95214 -1.644735 -9.310215 -5.88244 -12.420585 -8.866444999999999 -3.2924550000000004 2.2511875000000003 -6.7121705 4.310937 -10.241534999999999 6.1690000000000005 -4.441680000000001 2.1163649999999996 -6.97097 0.6965 -11.624585 -2.627795 -5.38295 -3.84269 -13.079274999999999 -9.412700000000001 -13.079274999999999 -9.412700000000001 0.2599935 -1.9676125 0.9813685 -3.8458740000000002 2.1053205 -5.481654 1.1239519999999998 -1.6357799999999998 2.618641 -2.9827115 4.3621795 -3.9310460000000003C85.8685 54.992655 91.54 58.867185 91.54 58.867185" stroke-width="1"></path><path id="Vector_28" stroke="#120071" stroke-linecap="round" stroke-linejoin="round" d="M75.646865 29.078875c1.194 1.1711150000000001 2.6666000000000003 -0.247755 1.587025 -1.4556850000000001 -0.8109249999999999 -0.908435 -1.81488 -1.94622 -2.4755599999999998 -2.6268000000000002 -0.19104000000000002 -0.228651 -0.46367 -0.373722 -0.759981 -0.404368 -0.296311 -0.0307455 -0.5929205 0.0552225 -0.8267455 0.23979499999999998 -0.2339245 0.184473 -0.3865575 0.452924 -0.425661 0.74824s0.038606 0.5942139999999999 0.2164125 0.833213c0.520385 0.631825 1.58802 1.58802 2.68451 2.665605Z" stroke-width="1"></path><path id="Vector_29" stroke="#120071" stroke-linecap="round" stroke-linejoin="round" d="M79.6 23.200415c-0.398 -0.47262499999999996 -0.6965 -0.8168949999999999 -1.077585 -1.266635 -0.181289 -0.2339245 -0.446755 -0.387851 -0.739882 -0.42904400000000004 -0.29312699999999997 -0.041193 -0.5907315 0.033630999999999994 -0.8295315 0.20845249999999999 -0.23879999999999998 0.17492100000000002 -0.39999 0.4361085 -0.449143 0.727942 -0.049153 0.291933 0.017512 0.5914280000000001 0.1857665 0.8349044999999999 0.41551200000000005 0.540683 0.8655505 1.0538045 1.3472300000000001 1.53628" stroke-width="1"></path><path id="Vector_30" stroke="#120071" stroke-linecap="round" stroke-linejoin="round" d="M77.99009000000001 24.864055c-0.41591 -0.45372 -1.3999650000000001 -1.45469 -1.813885 -1.909405 -0.1855675 -0.243178 -0.460088 -0.4026765 -0.763165 -0.44347149999999996 -0.3031765 -0.040795000000000005 -0.6100344999999999 0.0404965 -0.8532125 0.22606400000000001 -0.243178 0.18546800000000002 -0.4026765 0.45998849999999997 -0.44347149999999996 0.763165 -0.040795000000000005 0.303077 0.040596 0.6100344999999999 0.22606400000000001 0.8532125 0.506455 0.645755 1.74523 1.845725 2.8347550000000004 2.9670900000000002 0.91341 0.940275 1.92831 -0.037809999999999996 1.833785 -0.9263450000000001" stroke-width="1"></path><path id="Vector_31" stroke="#120071" stroke-linecap="round" stroke-linejoin="round" d="M72.62206499999999 29.305735s-0.37611 2.95913 6.53118 7.202805" stroke-width="1"></path><path id="Vector_32" stroke="#120071" stroke-linecap="round" stroke-linejoin="round" d="M67.1625 24.448145c1.8705999999999998 -3.36509 6.2247200000000005 -6.68839 10.092285 -4.55511 0.6096365 0.3455635 1.133504 0.8240590000000001 1.5327975 1.3999650000000001 0.39929349999999997 0.5758065 0.6636650000000001 1.234198 0.7736124999999999 1.92632" stroke-width="1"></path><path id="Vector_33" stroke="#120071" stroke-linecap="round" stroke-linejoin="round" d="m49.468415 41.534285000000004 -15.48021 -7.919205 0.888535 -2.098455 13.457375 4.7063500000000005" stroke-width="1"></path><path id="Vector_34" stroke="#120071" stroke-linecap="round" stroke-linejoin="round" d="m54.552865 45.542145 9.773885 -3.4914549999999998" stroke-width="1"></path><path id="Vector_35" stroke="#120071" stroke-linecap="round" stroke-linejoin="round" d="m65.64810999999999 41.572095 8.92117 -3.175045 -9.677370000000002 -18.844305 -18.71197 6.69038 4.460585 20.696994999999998 1.4556850000000001 -0.510435" stroke-width="1"></path><path id="Vector_36" stroke="#120071" stroke-linecap="round" stroke-linejoin="round" d="m4.975 62.60938 3.2506649999999997 -6.8227150000000005 10.509189999999998 -3.4974250000000002 3.4974250000000002 -11.26539" stroke-width="1"></path><path id="Vector_37" stroke="#120071" stroke-linecap="round" stroke-linejoin="round" d="m18.30004 43.33026 3.951145 -2.36213 1.98403 4.1392" stroke-width="1"></path><path id="Vector_38" stroke="#120071" stroke-linecap="round" stroke-linejoin="round" d="m132.123065 134.377735 2.2685999999999997 3.931245c1.9472150000000001 10.225615 3.817815 14.04343 6.71028 18.579635 1.700455 -4.309345 2.6268000000000002 -16.236410000000003 1.965125 -20.016415000000002 -1.463645 -1.9382599999999999 -2.824805 -3.9501500000000003 -4.0794999999999995 -6.029699999999999" stroke-width="1"></path><path id="Vector_39" stroke="#120071" stroke-linecap="round" stroke-linejoin="round" d="M140.077095 132.62156000000002c-2.388 1.02087 -4.65461 2.30442 -6.758039999999999 3.827765" stroke-width="1"></path><path id="Vector_40" stroke="#120071" stroke-linecap="round" stroke-linejoin="round" d="m174.348875 76.02894500000001 -10.565904999999999 10.88729" stroke-width="1"></path><path id="Vector_41" stroke="#120071" stroke-linecap="round" stroke-linejoin="round" d="M171.343975 71.56836c1.740255 1.9302005 3.68548 3.6650825 5.801845 5.174" stroke-width="1"></path><path id="Vector_42" stroke="#120071" stroke-linecap="round" stroke-linejoin="round" d="m176.08813500000002 77.91944500000001 2.494465 -2.77804c9.0346 -5.141165 12.059399999999998 -8.14706 15.404589999999999 -12.342975 -4.649635 -0.207955 -16.218500000000002 2.76013 -19.581599999999998 4.611825 -1.2387750000000002 1.8352775000000001 -2.5760549999999998 3.602099 -4.006865 5.292405" stroke-width="1"></path><path id="Vector_43" stroke="#120071" stroke-linecap="round" stroke-linejoin="round" d="m135.46129 132.91807 -8.76197 -16.76177" stroke-width="1"></path><path id="Vector_44" stroke="#120071" stroke-linecap="round" stroke-linejoin="round" d="M70.16541 56.6155c-2.5080965 -2.25069 -5.2156905 -4.26855 -8.089350000000001 -6.028705 -2.2995445 -1.2649435 -4.734409 -2.266212 -7.258525 -2.985 -3.702395 -1.0477349999999999 -3.98796 -2.114375 0.207955 -2.05965 4.457799 0.3581005 8.8456495 1.3246434999999999 13.041464999999999 2.872565" stroke-width="1"></path><path id="Vector_45" stroke="#120071" stroke-linecap="round" stroke-linejoin="round" d="M65.856065 47.6207c2.17308 0.094525 -0.872615 -3.81682 -1.3044449999999999 -4.952115 -0.58904 -1.5482200000000002 -1.16614 -3.294445 2.136265 -0.132335 2.738837 2.404318 5.6220485 4.638889000000001 8.633614999999999 6.691375" stroke-width="1"></path><path id="Vector_46" stroke="#120071" stroke-linecap="round" stroke-linejoin="round" d="M58.200535 48.755c-0.964155 -0.018904999999999998 -2.9670900000000002 0.0796 -3.553145 0.11343 -2.663615 0.152235 -2.43974 0.87361 -2.0228349999999997 0.9830599999999999 1.640755 0.43083499999999997 4.3650649999999995 0.796 5.8784600000000005 1.22783 2.43576 0.69053 7.20181 1.871595 8.902265 3.28947" stroke-width="1"></path><path id="Vector_47" stroke="#120071" stroke-linecap="round" stroke-linejoin="round" d="M58.321925 51.02957c-0.43979 0.09154 -0.787045 0.16517 -0.995 0.219895 -2.607895 0.5671499999999999 -2.267605 1.268625 -1.8327900000000001 1.3044449999999999 1.700455 0.14029499999999998 4.441680000000001 0.07263499999999999 6.010795000000001 0.24576499999999998 1.8933855 0.253725 3.7588114999999998 0.6841619999999999 5.572 1.2855400000000001" stroke-width="1"></path><path id="Vector_48" stroke="#120071" stroke-linecap="round" stroke-linejoin="round" d="M47.276430000000005 77.14434c0.000199 1.689908 -0.5007834999999999 3.3419065 -1.4394665 4.7470455000000005 -0.938683 1.4052385 -2.2730775 2.5005345 -3.8342324999999997 3.1472845 -1.5612545 0.6468495 -3.2791219999999996 0.8161985 -4.936593 0.4866545 -1.657471 -0.329544 -3.1800200000000003 -1.143255 -4.375015 -2.338051 -1.194995 -1.1948955 -2.0088055 -2.717345 -2.3385485 -4.3747165 -0.32974299999999995 -1.6573715 -0.16059299999999999 -3.375438 0.4860575 -4.9366925 0.6466505 -1.5612545 1.7417475 -2.8957485 3.146787 -3.8346305 1.405139 -0.938882 3.057038 -1.439964 4.746946 -1.439964 2.2655155 0.000995 4.4379985 0.9013705000000001 6.0400480000000005 2.5033204999999996 1.6020495000000001 1.6018505 2.5027234999999997 3.7742340000000003 2.5040169999999997 6.0397495v0Z" stroke-width="1"></path><path id="Vector_49" stroke="#120071" stroke-linecap="round" stroke-linejoin="round" d="M68.103571 88.12456300000001c0.6938135000000001 -0.20715899999999998 1.4095170000000001 -0.34665799999999997 2.137459 -0.41431799999999996 2.9168425 -0.26795349999999996 5.8208495000000005 0.632422 8.0745245 2.5035195 2.2536750000000003 1.8710975 3.6729429999999996 4.559886 3.9460705 7.4763304999999995 0.20118899999999998 2.17507 -0.2470585 4.36009 -1.287928 6.2804400000000005 -1.040969 1.92035 -2.627795 3.48847 -4.559985500000001 4.507350000000001 -1.9321905 1.017885 -4.1229815 1.44076 -6.295365 1.2139 -2.1723835 -0.225865 -4.22875 -1.091515 -5.9092055000000006 -2.486505 -1.5650355 -1.2994700000000001 -2.7386380000000003 -3.003905 -3.3950395 -4.92326" stroke-width="1"></path><path id="Vector_50" stroke="#120071" stroke-linecap="round" stroke-linejoin="round" d="M33.024049999999995 130.314155c4.3010865 1.82682 8.0016905 4.826745 10.679335 8.6565 -4.558692 1.02087 -9.312006 0.745255 -13.722045 -0.796 -4.300688500000001 -1.827815 -8.0010935 -4.826745 -10.679335 -8.6565 4.5585925000000005 -1.0218649999999998 9.3121055 -0.745255 13.722045 0.796Z" stroke-width="1"></path><path id="Vector_51" stroke="#120071" stroke-linecap="round" stroke-linejoin="round" d="M50.2475 163.86356500000002c1.3499165 2.506405 1.965921 5.3431500000000005 1.77707 8.183875 -2.6087905 -1.1741 -4.7834625 -3.137235 -6.2178545000000005 -5.612795 -1.434392 -2.474565 -2.056267 -5.33718 -1.7779654999999999 -8.18487 2.554762 1.2566849999999998 4.70834 3.200915 6.21875 5.613790000000001Z" stroke-width="1"></path><path id="Vector_52" stroke="#120071" stroke-linecap="round" stroke-linejoin="round" d="M83.11235 103.92775c-2.5984425 2.7272950000000002 -5.913284999999999 4.66655 -9.56394 5.5948850000000006 0.401582 -3.76309 1.9749755 -7.305289999999999 4.498196 -10.1262145 2.5232205 -2.820825 5.868709 -4.7778905 9.564138999999999 -5.5947854999999995 -0.5280465 3.7281655000000002 -2.085918 7.2346449999999995 -4.4983949999999995 10.126115v0Z" stroke-width="1"></path><path id="Vector_53" stroke="#120071" stroke-linecap="round" stroke-linejoin="round" d="M67.272945 93.26732c-1.268028 3.5521499999999997 -3.5090665 6.67645 -6.4675 9.015695 -1.0405710000000001 -3.6246855 -1.0443520000000002 -7.46847 -0.010945 -11.095245 1.266834 -3.5526475 3.508171 -6.677047 6.4675 -9.015695 1.037785 3.6250835 1.041566 7.4681715 0.010945 11.095245Z" stroke-width="1"></path><path id="Vector_54" stroke="#120071" stroke-linecap="round" stroke-linejoin="round" d="M34.290685 66.40829000000001c-1.1730055000000001 -1.2157905 -1.9843285 -2.7340609999999996 -2.343225 -4.384965 1.6625455 0.2976045 3.2079795 1.056093 4.460585 2.189 1.1726075 1.216089 1.983831 2.7343595 2.343225 4.384965 -1.6625455 -0.2976045 -3.2079795 -1.0559934999999998 -4.460585 -2.189v0Z" stroke-width="1"></path><path id="Vector_55" stroke="#120071" stroke-linecap="round" stroke-linejoin="round" d="M39.90547 85.60781c0.641775 10.614659999999999 1.3273300000000001 17.666224999999997 12.605655 35.1036 10.066415000000001 15.57175 -0.9094300000000001 30.000245 -0.6358050000000001 48.00477" stroke-width="1"></path><path id="Vector_56" stroke="#120071" stroke-linecap="round" stroke-linejoin="round" d="M65.64810999999999 108.256s-8.711225 8.711225 -8.955 24.775499999999997" stroke-width="1"></path><path id="Vector_57" stroke="#120071" stroke-linecap="round" stroke-linejoin="round" d="M43.760099999999994 138.91394s9.734085 5.651599999999999 8.675405 21.60344" stroke-width="1"></path><path id="Vector_58" stroke="#120071" stroke-linecap="round" stroke-linejoin="round" d="M65.34563 171.29124c-0.1712395 -0.63083 -0.5858559999999999 -1.169125 -1.153006 -1.49449 -0.5670505 -0.32636000000000004 -1.240168 -0.41391999999999995 -1.871794 -0.243775l-20.185565 5.40484c-0.312828 0.08457500000000001 -0.605955 0.22984500000000002 -0.862665 0.426855 -0.25671 0.19800500000000001 -0.472028 0.44377 -0.6336160000000001 0.725355 -0.1614885 0.28058999999999995 -0.2661625 0.590035 -0.3079525 0.91142 -0.04179 0.32138500000000003 -0.0199 0.647745 0.06447599999999999 0.960175 0.084376 0.313425 0.229447 0.605955 0.4271535 0.86366 0.197607 0.25671 0.4438695 0.47163 0.7246585 0.63282 0.2808885 0.162185 0.5907315 0.26666 0.912017 0.30845 0.3212855 0.04179 0.6476455 0.0199 0.9604735000000001 -0.064675l20.18656 -5.405835c0.631228 -0.17114 1.1688265 -0.586055 1.494888 -1.153205 0.3260615 -0.5671499999999999 0.41391999999999995 -1.23977 0.244372 -1.871595Z" stroke-width="1"></path><path id="Vector_59" stroke="#120071" stroke-linecap="round" stroke-linejoin="round" d="m41.193 73.5305 -3.81881 0.34029000000000004c-0.42705400000000004 0.0629835 -0.8138105 0.2868585 -1.081167 0.6257555 -0.267257 0.338897 -0.3949155 0.7672445 -0.356807 1.197184 0.038108500000000003 0.4299395 0.239198 0.829034 0.5620755 1.115594 0.322778 0.2864605 0.7429665 0.438795 1.1743985 0.42556150000000004l2.136265 -0.18905c0.4329245 -0.0154225 0.855302 0.135718 1.1799705 0.42237749999999996 0.324768 0.286759 0.527151 0.687147 0.5653590000000001 1.118579 0.0383075 0.43153149999999996 -0.0904455 0.861272 -0.359593 1.2006665 -0.269247 0.3393945 -0.6583914999999999 0.562573 -1.0872365 0.623467l-3.817815 0.359195" stroke-width="1"></path><path id="Vector_60" stroke="#120071" stroke-linecap="round" stroke-linejoin="round" d="m38.316455 72.51361 0.850725 9.26146" stroke-width="1"></path><path id="Vector_61" stroke="#120071" stroke-linecap="round" stroke-linejoin="round" d="m76.25182500000001 96.782655 -4.064575 -2.3243199999999997c-0.4786945 -0.2731275 -1.046342 -0.34486700000000003 -1.577871 -0.19949750000000002 -0.5316285 0.1453695 -0.9837565 0.495908 -1.2568840000000001 0.9746025 -0.2731275 0.4786945 -0.34486700000000003 1.046342 -0.199597 1.577871 0.1453695 0.5316285 0.4960075 0.9837565 0.9747020000000001 1.2568840000000001l2.267605 1.3044449999999999c0.237009 0.13532 0.4450635 0.315415 0.612323 0.5313300000000001 0.1672595 0.215915 0.290341 0.462675 0.3622795 0.725355 0.072038 0.263675 0.0914405 0.5382950000000001 0.0572125 0.808935 -0.034228 0.27064 -0.1214895 0.532325 -0.25671 0.769135 -0.1352205 0.23681 -0.315813 0.444765 -0.531529 0.6119249999999999 -0.21561650000000002 0.16716 -0.462078 0.29053999999999996 -0.725355 0.36317499999999997 -0.2631775 0.07164 -0.5379965 0.090545 -0.808736 0.056715 -0.2707395 -0.03383 -0.5321260000000001 -0.12139 -0.769135 -0.25671l-4.0794999999999995 -2.3243199999999997" stroke-width="1"></path><path id="Vector_62" stroke="#120071" stroke-linecap="round" stroke-linejoin="round" d="m74.07775000000001 93.75885000000001 -5.632695 9.90423" stroke-width="1"></path><path id="Vector_63" stroke="#120071" stroke-linecap="round" stroke-linejoin="round" d="M75.268765 157.03985500000002c0.5897365 0.247755 1.2528045 0.25671 1.8490085 0.024875 0.5963035000000001 -0.231835 1.0790775 -0.68655 1.346434 -1.26763 0.2673565 -0.5810799999999999 0.2984005 -1.24375 0.0864655 -1.8467200000000001 -0.21193499999999998 -0.603965 -0.6502325 -1.101465 -1.2222579999999998 -1.388025l-12.587745 -5.72722c-0.5901345 -0.249745 -1.2543965 -0.26069000000000003 -1.852093 -0.028855000000000002 -0.597597 0.23084000000000002 -1.0816645 0.68655 -1.349618 1.268625 -0.26795349999999996 0.582075 -0.29869900000000005 1.24574 -0.0856695 1.849705 0.2130295 0.6049599999999999 0.6530185 1.10246 1.2267355000000002 1.388025l12.58874 5.72722Z" stroke-width="1"></path><path id="Vector_64" stroke="#120071" stroke-linecap="round" stroke-linejoin="round" d="M103.37453000000001 142.05117499999997c0.03582 0.73033 -0.14626499999999998 1.4556850000000001 -0.52337 2.0835299999999997 -0.37611 0.62685 -0.9303250000000001 1.1283299999999998 -1.592 1.44076 -0.661675 0.31243 -1.40096 0.42188 -2.124325 0.31442 -0.723763 -0.10746 -1.3992685 -0.42785 -1.9411455 -0.9193800000000001 -0.5418769999999999 -0.49152999999999997 -0.925748 -1.13231 -1.1031565 -1.84274 -0.1774085 -0.7094349999999999 -0.1403945 -1.45668 0.106465 -2.14522 0.24685949999999998 -0.6885399999999999 0.6924205 -1.288525 1.280366 -1.7243350000000002 0.5879455 -0.43581 1.2918085 -0.68655 2.022636 -0.72237 0.48556 -0.023880000000000002 0.970125 0.048755 1.4278250000000001 0.21193499999999998 0.4577 0.16417500000000002 0.87759 0.41690499999999997 1.2377799999999999 0.743265s0.651725 0.72038 0.858685 1.159175c0.207955 0.43979 0.32636000000000004 0.9154 0.35024 1.40096Z" stroke-width="1"></path><path id="Vector_65" stroke="#120071" stroke-linecap="round" stroke-linejoin="round" d="M113.373285 150.972345c0.03582 0.731325 -0.14626499999999998 1.4556850000000001 -0.52337 2.0835299999999997 -0.37611 0.62685 -0.9303250000000001 1.1283299999999998 -1.592 1.44076 -0.661675 0.313425 -1.40096 0.42188 -2.124325 0.31442 -0.7233649999999999 -0.10746 -1.3989699999999998 -0.42785 -1.941245 -0.9193800000000001 -0.5422750000000001 -0.49152999999999997 -0.92535 -1.13231 -1.103455 -1.84274 -0.17711 -0.7094349999999999 -0.14029499999999998 -1.45668 0.106465 -2.14522 0.247755 -0.6885399999999999 0.6925199999999999 -1.288525 1.280565 -1.7243350000000002 0.5880449999999999 -0.43581 1.292505 -0.68655 2.0228349999999997 -0.72237 0.48556 -0.024875 0.97112 0.046765 1.42882 0.21094 0.4577 0.16318000000000002 0.878585 0.41591 1.2387750000000002 0.74227 0.359195 0.32636000000000004 0.651725 0.721375 0.858685 1.16017 0.20695999999999998 0.43979 0.325365 0.9163950000000001 0.34825 1.401955v0Z" stroke-width="1"></path><path id="Vector_66" stroke="#120071" stroke-linecap="round" stroke-linejoin="round" d="m96.627435 155.489645 16.084175 -17.747815" stroke-width="1"></path><path id="Vector_67" stroke="#120071" stroke-linecap="round" stroke-linejoin="round" d="m152.70663 53.34792 0.434815 9.0346" stroke-width="1"></path><path id="Vector_68" stroke="#120071" stroke-linecap="round" stroke-linejoin="round" d="m157.45078999999998 57.63836 -9.053505 0.45372" stroke-width="1"></path><path id="Vector_69" stroke="#120071" stroke-linecap="round" stroke-linejoin="round" d="M83.75512 30.11865c-1.342255 -1.73926 -0.619885 -4.822765 -1.8516949999999999 -6.2754650000000005 -1.5273249999999998 -1.7989600000000001 -1.74722 -1.386035 -4.4775 1.644735 -0.66267 0.735305 0.3781 2.1163649999999996 2.816845 0.11343 -0.8132135 0.546653 -1.4157855000000001 1.354195 -1.7085145000000002 2.289296 -0.2926295 0.9352005 -0.25790399999999997 1.9421405 0.0986045 2.854854" stroke-width="1"></path><path id="Vector_70" stroke="#120071" stroke-linecap="round" stroke-linejoin="round" d="m71.82905 33.255885 2.494465 -2.381035" stroke-width="1"></path><path id="Vector_71" stroke="#120071" stroke-linecap="round" stroke-linejoin="round" d="M74.3265 30.874850000000002c1.18803 1.0945 2.587 -0.2985 1.5124 -1.43678 -0.796 -0.846745 -1.3989699999999998 -1.417875 -2.060645 -2.07955 -0.1907415 -0.216313 -0.4583965 -0.34974249999999996 -0.7459515 -0.3718315 -0.287555 -0.021989500000000002 -0.5724235000000001 0.0689535 -0.7939105000000001 0.253725 -0.221487 0.18467199999999998 -0.3622795 0.448546 -0.392229 0.7354045 -0.029949499999999997 0.2868585 0.053133 0.5740155 0.231636 0.800577 0.498495 0.576105 1.14624 1.08057 2.2487 2.098455Z" stroke-width="1"></path><path id="Vector_72" stroke="#120071" stroke-linecap="round" stroke-linejoin="round" d="M46.71326 124.972c-0.6624709999999999 -4.444665 -2.5045145 -8.629635 -5.334194999999999 -12.120095 -2.2444215 4.0994 -3.286286 8.749035 -3.0058949999999998 13.413594999999999 0.577896 4.635705 2.4442175 9.016689999999999 5.3869299999999996 12.645455 2.353772 -4.247655 3.3823035000000004 -9.10226 2.95316 -13.938955v0Z" stroke-width="1"></path><path id="Vector_73" stroke="#120071" stroke-linecap="round" stroke-linejoin="round" d="M73.58622 60.719875c0.7232655 -3.939006 2.9029125 -7.4614055 6.10532 -9.86642" stroke-width="1"></path><path id="Vector_74" stroke="#120071" stroke-linecap="round" stroke-linejoin="round" d="M82.03576 40.198c1.0398744999999998 -3.3203150000000003 3.063008 -6.2469085 5.801845 -8.392825" stroke-width="1"></path></g></g></svg>